<svg xmlns="http://www.w3.org/2000/svg" xmlns:xlink="http://www.w3.org/1999/xlink" version="1.1" id="_レイヤー_2" x="0px" y="0px" viewBox="0 0 643.05975 967.56525" enable-background="new 0 0 643.05975 967.56525" width="643px" height="968px" class="lg:!max-h-[405px] isometric rectangleModalImage"><title>競合調査</title><g id="_2"><g><path fill="#DBEBF4" d="M148.37935,40.90432v199.99408l43.3013,25v-29.9991l51.96149,29.99998v29.99911l43.30128,25V120.90432&#10;&#9;&#9;&#9;C286.94342,120.90432,148.37935,40.90433,148.37935,40.90432z M191.68056,215.89992l-25.9808-15v-29.9991l25.9808,15V215.89992z&#10;&#9;&#9;&#9; M191.68056,165.90141l-25.9808-15v-29.99911l25.9808,15.00001V165.90141z M191.68056,115.90292l-25.9808-15v-29.9991&#10;&#9;&#9;&#9;l25.9808,14.99999V115.90292z M230.65175,238.39992l-25.9808-15v-29.9991l25.9808,15V238.39992z M230.65175,188.40141l-25.9808-15&#10;&#9;&#9;&#9;v-29.9991l25.9808,15V188.40141z M230.65175,138.40292l-25.9808-15.00001v-29.9991l25.9808,15V138.40292z M269.62283,260.8999&#10;&#9;&#9;&#9;l-25.98079-14.99998v-29.9991l25.98079,15V260.8999z M269.62283,210.9014l-25.98079-14.99998V165.9023l25.98079,15V210.9014z&#10;&#9;&#9;&#9; M269.62283,160.90291l-25.98079-14.99998v-29.99911l25.98079,14.99999V160.90291z"/><path fill="#EFF6FA" d="M491.50534,89.99882v-19.9994l-17.32053-10v-19.9994l-69.28198-40v19.9994l-17.3205-10v19.9994&#10;&#9;&#9;&#9;l-17.32047-10v149.99561l43.3013,25v-29.99911l51.96152,30v29.9991l43.3013,25V99.99883l-17.32047-10L491.50534,89.99882z&#10;&#9;&#9;&#9; M413.56302,144.99591l-25.98077-15V99.99682l25.98077,15V144.99591z M413.56302,94.99742l-25.98077-15v-29.9991l25.98077,15&#10;&#9;&#9;&#9;V94.99742z M452.53424,167.49591l-25.9808-15v-29.9991l25.9808,15V167.49591z M452.53424,117.49741l-25.9808-15v-29.9991&#10;&#9;&#9;&#9;l25.9808,15V117.49741z M491.50534,189.99591l-25.9808-15v-29.9991l25.9808,15V189.99591z M491.50534,139.99742l-25.9808-15.00001&#10;&#9;&#9;&#9;v-29.9991l25.9808,15V139.99742z"/><path fill="#DBEBF4" d="M560.78729,312.6662c-45.43665-26.23291-82.27234-4.96829-82.27234,47.49722&#10;&#9;&#9;&#9;c0,20.51941,5.69168,42.75397,15.27167,63.81549l41.0199,23.68289v-29.99908l51.96155,30v29.99908l41.021,23.6835&#10;&#9;&#9;&#9;c9.57886-10.00018,15.27069-25.66238,15.27069-46.18188c0-52.46552-36.83362-116.26312-82.2724-142.49719L560.78729,312.6662z&#10;&#9;&#9;&#9; M530.47644,395.16318l-25.9808-15v-29.99908l25.9808,15V395.16318z M573.77771,420.16318l-25.98077-15v-29.99908l25.98077,15&#10;&#9;&#9;&#9;V420.16318z M573.77771,370.1647l-25.98077-15v-29.99908l25.98077,15V370.1647z M617.07904,445.16318l-25.98083-15v-29.99908&#10;&#9;&#9;&#9;l25.98083,15V445.16318z"/><g><path fill="#FFD3D4" d="M17.41056,394.11331c-5.0289,11.87189,10.4964,93.86655,21.8599,92.81427&#10;&#9;&#9;&#9;&#9;s5.8406-42.06409,5.9578-77.10229c0.1202-35.93442-22.7888-27.58389-27.8177-15.71201V394.11331z"/><path fill="#FFD3D4" d="M53.60236,476.88467c9.3479,10.63931,92.8326-37.51462,89.74339-44.71692&#10;&#9;&#9;&#9;&#9;c-2.767-6.45099-69.0254,17.52072-84.008,28.33304C44.35526,471.31296,53.60236,476.88467,53.60236,476.88467z"/><path fill="#FFD3D4" d="M135.24556,425.48697c-4.16391,2.19662-9.43571,8.09442-7.40221,15.36542&#10;&#9;&#9;&#9;&#9;c2.1116,7.55008,14.5537,5.8334,17.0262,4.86639c16.814-6.57639,16.01628-13.3017,14.85829-19.59399&#10;&#9;&#9;&#9;&#9;s-15.81599-5.20963-24.48228-0.6377V425.48697z"/></g><g><path fill="#c2c2c2" d="M141.33485,468.41547c-6.22121,0-12.2715-3.22849-15.6055-9.0029&#10;&#9;&#9;&#9;&#9;c-4.9702-8.61038-2.02-19.61819,6.5894-24.5889l78.3838-45.25198c8.60889-4.96881,19.61769-2.02051,24.58839,6.5889&#10;&#9;&#9;&#9;&#9;c4.9702,8.61038,2.01999,19.61816-6.5894,24.58887l-78.38379,45.25201c-2.8345,1.63571-5.9292,2.41409-8.98289,2.41409&#10;&#9;&#9;&#9;&#9;L141.33485,468.41547z"/><path fill="#DFDFDF" d="M227.67224,410.56689c-3.4561,0-6.8174-1.79391-8.6694-5.00198&#10;&#9;&#9;&#9;&#9;c-2.7617-4.7832-1.1226-10.89938,3.6602-13.66019l49.6021-28.63672c4.7822-2.76273,10.8989-1.1221,13.66019,3.66022&#10;&#9;&#9;&#9;&#9;c2.76172,4.7832,1.12262,10.89938-3.66019,13.66019l-49.6021,28.63669c-1.57471,0.90921-3.29439,1.3418-4.99069,1.3418H227.67224&#10;&#9;&#9;&#9;&#9;z"/><g><path fill="#FFFFFF" d="M439.54382,278.24231c-33.8121-58.5631-84.41989-95.6015-124.95947-95.59731&#10;&#9;&#9;&#9;&#9;&#9;c-7.4863,0.00081-14.63101,1.26941-21.26282,3.8943c-41.13518,25.16199-40.76387,103.52658,1.12921,176.08618&#10;&#9;&#9;&#9;&#9;&#9;c40.0654,69.3938,103.7189,108.55469,146.25098,91.68549c41.10641-25.18069,40.72552-103.52588-1.1579-176.0687V278.24231z"/><path fill="#FFFFFF" d="M439.54382,278.24231c-33.8121-58.5631-84.41989-95.6015-124.95947-95.59731&#10;&#9;&#9;&#9;&#9;&#9;c-7.4863,0.00081-14.63101,1.26941-21.26282,3.8943c-41.13518,25.16199-40.76387,103.52658,1.12921,176.08618&#10;&#9;&#9;&#9;&#9;&#9;c40.0654,69.3938,103.7189,108.55469,146.25098,91.68549c41.10641-25.18069,40.72552-103.52588-1.1579-176.0687V278.24231z"/><polygon fill="#FFFFFF" points="314.59103,179.15781 314.59113,182.645 314.59113,179.15781"/></g><path fill="none" d="M479.25421,380.93152c0,69.03357-48.46661,97.0141-108.2532,62.49628S262.7478,324.96503,262.7478,255.93152&#10;&#9;&#9;&#9;&#9;c0-69.0336,48.46661-97.0141,108.2532-62.49629S479.25421,311.89801,479.25421,380.93152z"/><path fill="#CFCFCF" d="M302.45062,360.62549c-41.8931-72.5596-42.2644-150.92416-1.12921-176.08618&#10;&#9;&#9;&#9;&#9;c0.91721-0.36301,1.84631-0.69409,2.78271-1.00549c-3.7168,0.64369-7.32098,1.63541-10.78268,3.00551&#10;&#9;&#9;&#9;&#9;c-41.13521,25.162-40.7639,103.5266,1.12921,176.08617c39.1843,67.86789,100.92725,106.80801,143.41147,92.70752&#10;&#9;&#9;&#9;&#9;c-41.95099,7.2308-98.6236-30.9902-135.4115-94.70749V360.62549z"/><path fill="#DFDFDF" d="M468.20401,262.24231c-17.05237-29.5352-38.694-54.68729-62.5853-72.73741&#10;&#9;&#9;&#9;&#9;c-24.12427-18.2261-48.68518-27.85989-71.02759-27.85989h-0.0079c-12.16159,0.0013-23.30899,2.87741-33.13229,8.5486&#10;&#9;&#9;&#9;&#9;c-12.2135,7.05099-26.85919,10.15941-32.85919,32.15941c-2.5556,9.37059-3.41129,19.23389-3.6994,30.04829&#10;&#9;&#9;&#9;&#9;c3.96451-20.44821,13.43671-36.69139,28.42911-45.86211c6.63181-2.62489,13.77661-3.89351,21.26282-3.89429&#10;&#9;&#9;&#9;&#9;c40.53967-0.0042,91.14737,37.03421,124.95947,95.59727c41.88339,72.54279,42.26428,150.88809,1.15793,176.06873&#10;&#9;&#9;&#9;&#9;c-17.42749,6.91211-38.40143,4.41138-59.84549-5.71609c14.43771,10.13589,27.24078,16.75812,42.73547,16.75812&#10;&#9;&#9;&#9;&#9;c12.16019,0,4,9,40.9519-12.6788c12.16382-7.1362,21.61099-17.90118,27.93152-32.24911&#10;&#9;&#9;&#9;&#9;c5.82291-13.21811,8.7753-28.86002,8.7753-46.49109c0-35.11569-11.73611-74.78189-33.04642-111.69168L468.20401,262.24231z"/><g><path fill="#C6C6C6" d="M441.48532,281.6626c0.21509,0.3855,0.42239,0.7717,0.63516,1.1575&#10;&#9;&#9;&#9;&#9;&#9;C441.90771,282.43439,441.70038,282.0481,441.48532,281.6626z"/><path fill="#C6C6C6" d="M443.36603,285.09082c0.2543,0.47159,0.4996,0.944,0.7504,1.4158&#10;&#9;&#9;&#9;&#9;&#9;C443.8656,286.03482,443.62033,285.56241,443.36603,285.09082z"/><path fill="#C6C6C6" d="M403.58823,229.96001c-1.086-1.1333-2.17929-2.24319-3.27609-3.34061&#10;&#9;&#9;&#9;&#9;&#9;C401.40894,227.7168,402.50223,228.82671,403.58823,229.96001z"/><path fill="#C6C6C6" d="M445.1835,288.5217c0.2688,0.51642,0.52829,1.03333,0.79282,1.5499&#10;&#9;&#9;&#9;&#9;&#9;C445.71173,289.55499,445.45221,289.03802,445.1835,288.5217z"/><path fill="#C6C6C6" d="M433.16504,267.75961c0.97198,1.51871,1.9313,3.0563,2.8804,4.60779&#10;&#9;&#9;&#9;&#9;&#9;C435.09622,270.81592,434.13702,269.27829,433.16504,267.75961z"/><path fill="#C6C6C6" d="M436.67072,273.39771c0.96887,1.59988,1.92969,3.21078,2.87299,4.8446&#10;&#9;&#9;&#9;&#9;&#9;C438.6004,276.60852,437.63953,274.9975,436.67072,273.39771z"/><path fill="#C6C6C6" d="M446.94144,291.96021c0.26587,0.52982,0.52261,1.05978,0.78418,1.5896&#10;&#9;&#9;&#9;&#9;&#9;C447.46402,293.0199,447.20743,292.49002,446.94144,291.96021z"/><path fill="#C6C6C6" d="M451.84393,302.2825c0.25952,0.57901,0.5098,1.15771,0.76407,1.7366&#10;&#9;&#9;&#9;&#9;&#9;C452.35373,303.44022,452.10339,302.86151,451.84393,302.2825z"/><path fill="#C6C6C6" d="M454.80353,309.15582c0.25131,0.60818,0.49319,1.21558,0.7388,1.82339&#10;&#9;&#9;&#9;&#9;&#9;C455.29681,310.37143,455.05481,309.76404,454.80353,309.15582z"/><path fill="#C6C6C6" d="M448.63742,295.40079c0.26569,0.5491,0.52209,1.09833,0.78308,1.64731&#10;&#9;&#9;&#9;&#9;&#9;C449.15948,296.49899,448.90311,295.94968,448.63742,295.40079z"/><path fill="#C6C6C6" d="M450.27112,298.84082c0.26392,0.56641,0.51849,1.13269,0.7774,1.69901&#10;&#9;&#9;&#9;&#9;&#9;C450.78961,299.97342,450.53503,299.40723,450.27112,298.84082z"/><path fill="#C6C6C6" d="M453.35483,305.72141c0.25668,0.59619,0.50418,1.19189,0.75531,1.78778&#10;&#9;&#9;&#9;&#9;&#9;C453.85892,306.9133,453.61154,306.3175,453.35483,305.72141z"/><path fill="#C6C6C6" d="M407.98883,234.6909c1.09171,1.2061,2.17789,2.42769,3.25589,3.6702&#10;&#9;&#9;&#9;&#9;&#9;C410.1666,237.1188,409.0806,235.897,407.98883,234.6909z"/><path fill="#C6C6C6" d="M318.07544,182.74323c-1.11652-0.05711-2.22708-0.09091-3.32938-0.0936&#10;&#9;&#9;&#9;&#9;&#9;C315.84824,182.65222,316.95905,182.68633,318.07544,182.74323z"/><path fill="#C6C6C6" d="M403.92511,230.313c1.0795,1.13159,2.15161,2.28581,3.21918,3.45239&#10;&#9;&#9;&#9;&#9;&#9;C406.0766,232.59882,405.00461,231.4446,403.92511,230.313z"/><path fill="#C6C6C6" d="M392.3652,219.06691c0.9819,0.88539,1.9606,1.785,2.93591,2.6992&#10;&#9;&#9;&#9;&#9;&#9;C394.32581,220.85193,393.34711,219.95233,392.3652,219.06691z"/><path fill="#C6C6C6" d="M396.07056,222.48491c1.11819,1.05869,2.2309,2.1389,3.33917,3.23489&#10;&#9;&#9;&#9;&#9;&#9;C398.30133,224.6239,397.18863,223.5435,396.07056,222.48491z"/><path fill="#C6C6C6" d="M422.61633,252.49492c1.04858,1.4059,2.0845,2.83569,3.11371,4.27699&#10;&#9;&#9;&#9;&#9;&#9;C424.70084,255.33061,423.66495,253.90082,422.61633,252.49492z"/><path fill="#C6C6C6" d="M426.4285,257.75241c1.01559,1.43649,2.02261,2.8877,3.01788,4.35818&#10;&#9;&#9;&#9;&#9;&#9;C428.45111,260.64011,427.44421,259.189,426.4285,257.75241z"/><path fill="#C6C6C6" d="M429.96472,262.8855c0.90988,1.35449,1.81082,2.72311,2.70248,4.1058&#10;&#9;&#9;&#9;&#9;&#9;C431.77554,265.60861,430.87451,264.23999,429.96472,262.8855z"/><path fill="#C6C6C6" d="M415.41452,243.2988c1.06812,1.2998,2.12711,2.62,3.17902,3.95531&#10;&#9;&#9;&#9;&#9;&#9;C417.54163,245.91881,416.48276,244.5986,415.41452,243.2988z"/><path fill="#C6C6C6" d="M411.90082,239.12601c0.96909,1.1263,1.9324,2.26709,2.8895,3.4222&#10;&#9;&#9;&#9;&#9;&#9;C413.83322,241.39301,412.87,240.2523,411.90082,239.12601z"/><path fill="#C6C6C6" d="M419.34592,248.21651c1.06931,1.37131,2.1329,2.75439,3.18402,4.16209&#10;&#9;&#9;&#9;&#9;&#9;C421.47894,250.97099,420.41522,249.58781,419.34592,248.21651z"/><path fill="#C6C6C6" d="M471.23325,386.58612c0.009-0.7843,0.01367-1.5712,0.00992-2.36304&#10;&#9;&#9;&#9;&#9;&#9;C471.24698,385.0148,471.24234,385.80182,471.23325,386.58612z"/><path fill="#C6C6C6" d="M470.41409,368.9404c0.07761,0.76559,0.14679,1.52719,0.21353,2.2876&#10;&#9;&#9;&#9;&#9;&#9;C470.56082,370.4675,470.4917,369.70599,470.41409,368.9404z"/><path fill="#C6C6C6" d="M469.65723,362.6167c0.10312,0.74878,0.19791,1.4939,0.29099,2.23831&#10;&#9;&#9;&#9;&#9;&#9;C469.8551,364.11047,469.76041,363.36551,469.65723,362.6167z"/><path fill="#C6C6C6" d="M470.06631,365.79419c0.09048,0.75629,0.1727,1.50919,0.25269,2.26099&#10;&#9;&#9;&#9;&#9;&#9;C470.23889,367.30319,470.1568,366.55066,470.06631,365.79419z"/><path fill="#C6C6C6" d="M468.06482,352.93491c0.13919,0.72961,0.26981,1.45618,0.3999,2.1825&#10;&#9;&#9;&#9;&#9;&#9;C468.33463,354.39108,468.20401,353.66452,468.06482,352.93491z"/><path fill="#C6C6C6" d="M469.18784,359.4158c0.11539,0.74188,0.2225,1.48071,0.32822,2.21902&#10;&#9;&#9;&#9;&#9;&#9;C469.41028,360.89651,469.30325,360.15793,469.18784,359.4158z"/><path fill="#C6C6C6" d="M468.65665,356.18597c0.12729,0.73462,0.24619,1.46591,0.36398,2.19702&#10;&#9;&#9;&#9;&#9;&#9;C468.90271,357.65189,468.78394,356.92059,468.65665,356.18597z"/><path fill="#C6C6C6" d="M470.70123,372.05899c0.0639,0.77271,0.11942,1.54138,0.17209,2.3085&#10;&#9;&#9;&#9;&#9;&#9;C470.82065,373.60028,470.7652,372.8317,470.70123,372.05899z"/><path fill="#C6C6C6" d="M456.1926,312.59021c0.24319,0.61447,0.47729,1.22827,0.71469,1.84229&#10;&#9;&#9;&#9;&#9;&#9;C456.66998,313.81851,456.43591,313.20471,456.1926,312.59021z"/><path fill="#C6C6C6" d="M471.19864,381.23181c0.01959,0.78699,0.03088,1.56946,0.03799,2.3497&#10;&#9;&#9;&#9;&#9;&#9;C471.22943,382.80121,471.21823,382.01901,471.19864,381.23181z"/><path fill="#C6C6C6" d="M470.92761,375.14789c0.04959,0.77783,0.09088,1.5513,0.12888,2.323&#10;&#9;&#9;&#9;&#9;&#9;C471.01849,376.69897,470.97729,375.92572,470.92761,375.14789z"/><path fill="#C6C6C6" d="M471.09351,378.20728c0.03491,0.7825,0.06131,1.5607,0.0842,2.33688&#10;&#9;&#9;&#9;&#9;&#9;C471.15482,379.76794,471.12842,378.98987,471.09351,378.20728z"/><path fill="#C6C6C6" d="M388.19113,215.40401c1.12802,0.9617,2.25311,1.9397,3.37372,2.9393&#10;&#9;&#9;&#9;&#9;&#9;C390.44424,217.3437,389.31924,216.36549,388.19113,215.40401z"/><path fill="#C6C6C6" d="M462.21231,329.63889c0.20599,0.66382,0.40329,1.32568,0.6022,1.98801&#10;&#9;&#9;&#9;&#9;&#9;C462.61548,330.96451,462.4183,330.3027,462.21231,329.63889z"/><path fill="#C6C6C6" d="M459.98923,322.84961c0.2197,0.63791,0.43048,1.27441,0.64389,1.91141&#10;&#9;&#9;&#9;&#9;&#9;C460.4198,324.12399,460.20898,323.48761,459.98923,322.84961z"/><path fill="#C6C6C6" d="M461.13181,326.25098c0.21277,0.65012,0.41678,1.29861,0.62289,1.9473&#10;&#9;&#9;&#9;&#9;&#9;C461.54858,327.54959,461.3447,326.90115,461.13181,326.25098z"/><path fill="#C6C6C6" d="M467.41324,349.66751c0.14938,0.7178,0.29019,1.43262,0.43079,2.14728&#10;&#9;&#9;&#9;&#9;&#9;C467.70334,351.10001,467.56262,350.38519,467.41324,349.66751z"/><path fill="#C6C6C6" d="M457.5192,316.01669c0.2348,0.62021,0.4606,1.23941,0.68939,1.85901&#10;&#9;&#9;&#9;&#9;&#9;C457.9798,317.2561,457.75412,316.6369,457.5192,316.01669z"/><path fill="#C6C6C6" d="M458.78552,319.43881c0.22681,0.62759,0.44479,1.25397,0.66541,1.88068&#10;&#9;&#9;&#9;&#9;&#9;C459.23022,320.69272,459.01242,320.06628,458.78552,319.43881z"/><path fill="#C6C6C6" d="M463.23184,333.01541c0.19699,0.67139,0.38538,1.34058,0.5751,2.01038&#10;&#9;&#9;&#9;&#9;&#9;C463.61716,334.35599,463.42883,333.6868,463.23184,333.01541z"/><path fill="#C6C6C6" d="M465.92371,343.0571c0.1701,0.70172,0.3316,1.4006,0.4935,2.09967&#10;&#9;&#9;&#9;&#9;&#9;C466.25522,344.4577,466.09381,343.7587,465.92371,343.0571z"/><path fill="#C6C6C6" d="M466.69882,346.37119c0.159,0.70581,0.3096,1.40912,0.46027,2.11221&#10;&#9;&#9;&#9;&#9;&#9;C467.00839,347.7803,466.85788,347.07718,466.69882,346.37119z"/><path fill="#C6C6C6" d="M465.08884,339.73068c0.17859,0.68802,0.34839,1.3739,0.51929,2.05991&#10;&#9;&#9;&#9;&#9;&#9;C465.43735,341.10458,465.26743,340.41876,465.08884,339.73068z"/><path fill="#C6C6C6" d="M464.19092,336.38037c0.18732,0.67712,0.36578,1.35208,0.54562,2.02753&#10;&#9;&#9;&#9;&#9;&#9;C464.55676,337.73251,464.37823,337.05762,464.19092,336.38037z"/><path fill="#C6C6C6" d="M322.42831,183.09232c1.1041,0.1228,2.21579,0.27861,3.33112,0.45171&#10;&#9;&#9;&#9;&#9;&#9;C324.64401,183.37082,323.5325,183.21521,322.42831,183.09232z"/><path fill="#C6C6C6" d="M468.97803,409.12408c0.15561-0.77621,0.3038-1.55768,0.44339-2.3461&#10;&#9;&#9;&#9;&#9;&#9;C469.2818,407.56616,469.13358,408.34808,468.97803,409.12408z"/><path fill="#C6C6C6" d="M466.37112,419.27539c0.23843-0.7493,0.46841-1.50558,0.68933-2.26953&#10;&#9;&#9;&#9;&#9;&#9;C466.83954,417.76978,466.60956,418.52618,466.37112,419.27539z"/><path fill="#C6C6C6" d="M469.47604,406.46219c0.13568-0.7804,0.26459-1.5658,0.38458-2.3577&#10;&#9;&#9;&#9;&#9;&#9;C469.74042,404.89618,469.61185,405.68192,469.47604,406.46219z"/><path fill="#C6C6C6" d="M467.79803,414.29938c0.19611-0.76401,0.38446-1.53439,0.56387-2.31201&#10;&#9;&#9;&#9;&#9;&#9;C468.1825,412.76489,467.9942,413.53537,467.79803,414.29938z"/><path fill="#C6C6C6" d="M467.11603,416.81097c0.2168-0.7562,0.42551-1.51901,0.62531-2.28931&#10;&#9;&#9;&#9;&#9;&#9;C467.54153,415.29196,467.33295,416.05487,467.11603,416.81097z"/><path fill="#C6C6C6" d="M468.41864,411.73727c0.17569-0.77078,0.34399-1.54752,0.5033-2.33109&#10;&#9;&#9;&#9;&#9;&#9;C468.76254,410.18958,468.59445,410.96649,468.41864,411.73727z"/><path fill="#C6C6C6" d="M471.04071,392.4697c0.04279-0.78589,0.0806-1.57477,0.10971-2.36911&#10;&#9;&#9;&#9;&#9;&#9;C471.12112,390.89478,471.0835,391.68399,471.04071,392.4697z"/><path fill="#C6C6C6" d="M470.85132,395.3562c0.06049-0.78738,0.11557-1.57809,0.16208-2.37448&#10;&#9;&#9;&#9;&#9;&#9;C470.96677,393.77805,470.9119,394.569,470.85132,395.3562z"/><path fill="#C6C6C6" d="M470.28723,400.99731c0.0972-0.78561,0.18842-1.57541,0.27081-2.37131&#10;&#9;&#9;&#9;&#9;&#9;C470.47552,399.42191,470.38455,400.21182,470.28723,400.99731z"/><path fill="#C6C6C6" d="M469.91245,403.7532c0.1163-0.78339,0.22607-1.57141,0.32709-2.36569&#10;&#9;&#9;&#9;&#9;&#9;C470.13846,402.1817,470.02887,402.96991,469.91245,403.7532z"/><path fill="#C6C6C6" d="M470.6001,398.19907c0.0787-0.7872,0.15161-1.57846,0.21582-2.3754&#10;&#9;&#9;&#9;&#9;&#9;C470.75159,396.62054,470.67892,397.41177,470.6001,398.19907z"/><path fill="#C6C6C6" d="M464.70151,424.02899c0.28119-0.72879,0.55353-1.46512,0.81662-2.20999&#10;&#9;&#9;&#9;&#9;&#9;C465.25504,422.56357,464.98282,423.30038,464.70151,424.02899z"/><path fill="#C6C6C6" d="M458.22821,436.90231c0.41321-0.64261,0.81668-1.29523,1.21008-1.95782&#10;&#9;&#9;&#9;&#9;&#9;C459.04471,435.60709,458.64142,436.25967,458.22821,436.90231z"/><path fill="#C6C6C6" d="M456.93793,438.82928c0.43478-0.62381,0.85959-1.25787,1.2746-1.90262&#10;&#9;&#9;&#9;&#9;&#9;C457.79752,437.57117,457.37271,438.20547,456.93793,438.82928z"/><path fill="#C6C6C6" d="M465.56711,421.67886c0.25983-0.74008,0.5112-1.48749,0.7532-2.24319&#10;&#9;&#9;&#9;&#9;&#9;C466.07822,420.19119,465.827,420.93887,465.56711,421.67886z"/><path fill="#C6C6C6" d="M455.58475,440.69431c0.45679-0.60501,0.90356-1.22052,1.34048-1.8468&#10;&#9;&#9;&#9;&#9;&#9;C456.48831,439.47379,456.04163,440.08942,455.58475,440.69431z"/><path fill="#C6C6C6" d="M454.17255,442.49048c0.479-0.58527,0.94797-1.18158,1.40689-1.78909&#10;&#9;&#9;&#9;&#9;&#9;C455.12051,441.30859,454.65155,441.9053,454.17255,442.49048z"/><path fill="#C6C6C6" d="M459.45865,434.91037c0.39139-0.66,0.77301-1.32968,1.1449-2.00931&#10;&#9;&#9;&#9;&#9;&#9;C460.23166,433.58047,459.85004,434.25049,459.45865,434.91037z"/><path fill="#C6C6C6" d="M471.168,389.54449c0.0256-0.785,0.04663-1.57294,0.05908-2.36581&#10;&#9;&#9;&#9;&#9;&#9;C471.21457,387.97168,471.19379,388.75949,471.168,389.54449z"/><path fill="#C6C6C6" d="M463.77463,426.3237c0.30301-0.71701,0.59689-1.44241,0.8815-2.17642&#10;&#9;&#9;&#9;&#9;&#9;C464.37161,424.8812,464.07773,425.60669,463.77463,426.3237z"/><path fill="#C6C6C6" d="M460.62842,432.85547c0.36911-0.67551,0.72849-1.3605,1.07831-2.0549&#10;&#9;&#9;&#9;&#9;&#9;C461.35684,431.4949,460.99753,432.17996,460.62842,432.85547z"/><path fill="#C6C6C6" d="M462.78674,428.56049c0.32501-0.70462,0.64072-1.41769,0.94699-2.13983&#10;&#9;&#9;&#9;&#9;&#9;C463.42746,427.14255,463.11176,427.85587,462.78674,428.56049z"/><path fill="#C6C6C6" d="M461.73883,430.73639c0.3468-0.69031,0.6842-1.38953,1.01199-2.09802&#10;&#9;&#9;&#9;&#9;&#9;C462.42303,429.34686,462.08563,430.04617,461.73883,430.73639z"/><path fill="#C6C6C6" d="M375.72852,205.6532c1.13702,0.811,2.272,1.64511,3.40512,2.4955&#10;&#9;&#9;&#9;&#9;&#9;C378.00052,207.2984,376.86554,206.4644,375.72852,205.6532z"/><path fill="#C6C6C6" d="M354.98132,193.15361c1.14142,0.5616,2.28403,1.14839,3.42709,1.7527&#10;&#9;&#9;&#9;&#9;&#9;C357.26532,194.30211,356.1228,193.7153,354.98132,193.15361z"/><path fill="#C6C6C6" d="M338.79913,186.62151c1.11688,0.35031,2.23621,0.7166,3.35928,1.11169&#10;&#9;&#9;&#9;&#9;&#9;C341.0354,187.33791,339.91623,186.972,338.79913,186.62151z"/><path fill="#C6C6C6" d="M351.17422,191.36362c0.98431,0.44411,1.9696,0.90419,2.9559,1.38069&#10;&#9;&#9;&#9;&#9;&#9;C353.14371,192.26791,352.15842,191.80771,351.17422,191.36362z"/><path fill="#C6C6C6" d="M346.88263,189.52472c1.13898,0.46071,2.27988,0.94061,3.42279,1.4456&#10;&#9;&#9;&#9;&#9;&#9;C349.16254,190.46521,348.02164,189.98543,346.88263,189.52472z"/><path fill="#C6C6C6" d="M342.63763,187.90501c1.08478,0.3875,2.1727,0.80099,3.26208,1.22971&#10;&#9;&#9;&#9;&#9;&#9;C344.81021,188.70602,343.72241,188.29272,342.63763,187.90501z"/><path fill="#C6C6C6" d="M359.44754,195.4633c1.09329,0.5901,2.18701,1.1945,3.28091,1.82289&#10;&#9;&#9;&#9;&#9;&#9;C361.63455,196.65781,360.54095,196.05341,359.44754,195.4633z"/><path fill="#C6C6C6" d="M383.99402,211.92461c1.0762,0.86598,2.14902,1.75328,3.21948,2.65381&#10;&#9;&#9;&#9;&#9;&#9;C386.14291,213.67792,385.0701,212.79041,383.99402,211.92461z"/><path fill="#C6C6C6" d="M363.37845,197.66281c1.06949,0.6218,2.13889,1.26559,3.20789,1.9236&#10;&#9;&#9;&#9;&#9;&#9;C365.51721,198.92841,364.44794,198.28461,363.37845,197.66281z"/><path fill="#C6C6C6" d="M380.15204,208.92081c1.0943,0.83362,2.18701,1.68021,3.27661,2.5499&#10;&#9;&#9;&#9;&#9;&#9;C382.33905,210.60091,381.24634,209.7543,380.15204,208.92081z"/><path fill="#C6C6C6" d="M367.62314,200.2278c1.13989,0.7141,2.27921,1.4456,3.41739,2.20012&#10;&#9;&#9;&#9;&#9;&#9;C369.90234,201.6734,368.76303,200.94191,367.62314,200.2278z"/><path fill="#C6C6C6" d="M371.93033,203.0276c0.97821,0.65768,1.95541,1.3302,2.93161,2.0173&#10;&#9;&#9;&#9;&#9;&#9;C373.88574,204.3578,372.90863,203.68541,371.93033,203.0276z"/><path fill="#C6C6C6" d="M303.68134,183.60051c0.806-0.1458,1.61841-0.27161,2.43509-0.3837&#10;&#9;&#9;&#9;&#9;&#9;C305.29962,183.32863,304.4873,183.45512,303.68134,183.60051z"/><path fill="#C6C6C6" d="M440.70172,454.31097c-42.53207,16.86908-106.1857-22.29172-146.25098-91.68549&#10;&#9;&#9;&#9;&#9;&#9;c-41.88458-72.54489-42.26399-150.89177-1.15378-176.07028c-2.34772,0.93091-4.6348,2.02209-6.84619,3.2988&#10;&#9;&#9;&#9;&#9;&#9;c-42.27551,24.4063-42.27551,103.54959,0,176.77151s110.8176,112.79471,153.09308,88.38828&#10;&#9;&#9;&#9;&#9;&#9;c5.62741-3.24878,10.49802-7.47601,14.62732-12.52151c-3.84161,4.69348-8.33142,8.6713-13.46939,11.8187H440.70172z"/><path fill="#C6C6C6" d="M306.79483,183.13242c0.61569-0.0773,1.2338-0.14661,1.8551-0.205&#10;&#9;&#9;&#9;&#9;&#9;C308.02844,182.98572,307.41055,183.05531,306.79483,183.13242z"/><path fill="#C6C6C6" d="M334.44534,185.36031c1.133,0.29761,2.27057,0.62331,3.41129,0.9687&#10;&#9;&#9;&#9;&#9;&#9;C336.71603,185.98352,335.57834,185.658,334.44534,185.36031z"/><path fill="#C6C6C6" d="M296.06613,185.54561c0.677-0.22569,1.35919-0.4371,2.04581-0.636&#10;&#9;&#9;&#9;&#9;&#9;C297.42523,185.10831,296.74313,185.32001,296.06613,185.54561z"/><path fill="#C6C6C6" d="M293.60184,186.43651c0.65161-0.25369,1.3078-0.49458,1.9689-0.72229&#10;&#9;&#9;&#9;&#9;&#9;C294.90952,185.94193,294.25333,186.18282,293.60184,186.43651z"/><path fill="#C6C6C6" d="M298.51852,184.79021c1.67542-0.4711,3.37741-0.8661,5.1058-1.18031&#10;&#9;&#9;&#9;&#9;&#9;C301.89563,183.9236,300.19403,184.3194,298.51852,184.79021z"/><path fill="#C6C6C6" d="M309.51294,182.85362c0.57349-0.04581,1.14951-0.08261,1.72769-0.11272&#10;&#9;&#9;&#9;&#9;&#9;C310.66245,182.77071,310.08652,182.80792,309.51294,182.85362z"/><path fill="#C6C6C6" d="M330.70963,184.46832c1.00052,0.2178,2.00461,0.45459,3.01208,0.71069&#10;&#9;&#9;&#9;&#9;&#9;C332.71423,184.92291,331.71024,184.68613,330.70963,184.46832z"/><path fill="#C6C6C6" d="M326.59064,183.6752c1.12271,0.18629,2.24991,0.39471,3.3826,0.63091&#10;&#9;&#9;&#9;&#9;&#9;C328.84042,184.0699,327.71335,183.86159,326.59064,183.6752z"/><path fill="#C6C6C6" d="M312.15695,182.69711c0.59619-0.02229,1.19568-0.03268,1.79639-0.0385&#10;&#9;&#9;&#9;&#9;&#9;C313.35254,182.66431,312.75314,182.67491,312.15695,182.69711z"/><path fill="#C6C6C6" d="M318.84384,182.78831c1.1347,0.07008,2.2739,0.1584,3.42178,0.2836&#10;&#9;&#9;&#9;&#9;&#9;c-1.14801-0.12529-2.28711-0.2133-3.42181-0.2836H318.84384z"/></g></g><path fill="#E6E6E6" d="M314.58423,182.645c40.5397-0.0042,91.14737,37.03421,124.95947,95.59731&#10;&#9;&#9;&#9;c42.27551,73.22189,42.27551,152.36517,0,176.77148c-8.46341,4.88602-17.9863,7.20901-28.1337,7.20901&#10;&#9;&#9;&#9;c-40.5397,0-91.14731-37.03418-124.95947-95.59729c-42.2755-73.22189-42.2755-152.36517,0-176.7715&#10;&#9;&#9;&#9;c8.46341-4.88599,17.9863-7.2079,28.13361-7.20889 M314.59113,172.645h-0.00787&#10;&#9;&#9;&#9;c-12.16162,0.0013-23.30902,2.87741-33.13232,8.54861c-12.2135,7.05098-21.61099,17.90118-27.93158,32.2491&#10;&#9;&#9;&#9;c-5.8228,13.21809-8.77521,28.85999-8.77521,46.49121c0,35.1156,11.73599,74.78168,33.04642,111.69147&#10;&#9;&#9;&#9;c17.05298,29.5361,38.69598,54.68878,62.58926,72.73892c24.12497,18.2251,48.68689,27.85831,71.03036,27.85831&#10;&#9;&#9;&#9;c12.16019,0,23.30801-2.8761,33.13339-8.54852c12.21341-7.05099,21.61099-17.90118,27.93149-32.24908&#10;&#9;&#9;&#9;c5.82291-13.21814,8.7753-28.86002,8.7753-46.49109c0-35.11569-11.73611-74.78189-33.04642-111.69171&#10;&#9;&#9;&#9;c-17.0524-29.53519-38.694-54.68729-62.58517-72.73737c-24.1243-18.2261-48.68518-27.85989-71.02759-27.85989l0,0&#10;&#9;&#9;&#9;L314.59113,172.645z"/><g><g><path opacity="0.05" fill="#1A1A1A" d="M23.36886,904.04858&#10;&#9;&#9;&#9;&#9;&#9;c14.3412-8.27991,49.21959-1.56732,77.90289,14.99298c28.6833,16.56024,40.30989,36.69727,25.9687,44.97723&#10;&#9;&#9;&#9;&#9;&#9;c-14.3412,8.27985-49.2196,1.56732-77.90289-14.99298S9.02765,912.32849,23.36886,904.04858z" enable-background="new"/><g><path fill="#EDE6EB" d="M29.96016,374.9303c-7.2179,1.37613-18.3176,4.86301-24.7832,12.79419&#10;&#9;&#9;&#9;&#9;&#9;&#9;c-10.514,12.89719-1.8906,57.3577-1.0964,58.3334c0.7019,0.86237,10.6152,8.96622,18.1452,8.96689&#10;&#9;&#9;&#9;&#9;&#9;&#9;c30.4418,0.00259,7.7345-80.09448,7.7345-80.09448H29.96016z"/><path opacity="0.1" d="M25.93656,401.505c0,0-5.5068,5.90579-8.0596,10.9483&#10;&#9;&#9;&#9;&#9;&#9;&#9;c-6.7295,13.293-11.9252,32.8046,1.6587,38.69098s6.4009-49.63931,6.4009-49.63931V401.505z" enable-background="new"/><g><path fill="#EDE6EB" d="M104.64335,412.4982c-1.48501-5.47119-4.0979-11.22559-8.6359-16.55551&#10;&#9;&#9;&#9;&#9;&#9;&#9;&#9;c-9.9194-11.65131-26.14339-18.73331-50.1692-22.08063c-4.0714-0.56726-17.9359-2.20068-26.3322,5.65869&#10;&#9;&#9;&#9;&#9;&#9;&#9;&#9;c-11.3193,10.5957-5.6955,32.84592-4.418,53.9989c1.3333,22.08051,10.7739,25.7988,4.9664,75.14468&#10;&#9;&#9;&#9;&#9;&#9;&#9;&#9;c-4.1199,35.00583,37.2223,46.55209,55.23189,47.09372c18.0096,0.54199,11.1969-11.31073,20.7526-11.10632&#10;&#9;&#9;&#9;&#9;&#9;&#9;&#9;c9.5551,0.20374,10.62009-19.15741,8.68349-28.29321c-0.3546-1.67236-0.6451-3.57855-0.838-5.77768&#10;&#9;&#9;&#9;&#9;&#9;&#9;&#9;c-0.1392-1.58649,0.0006-3.34549,0.1453-5.2692c0.2002-2.65671,0.4102-5.63739-0.0922-8.99899&#10;&#9;&#9;&#9;&#9;&#9;&#9;&#9;c-4.057-27.168-5.2103-31.02982,4.92369-57.789c0.3152-0.83209,0.603-1.68756,0.8856-2.5452&#10;&#9;&#9;&#9;&#9;&#9;&#9;&#9;c2.5266-7.66461-3.4238-17.28989-5.1035-23.48019L104.64335,412.4982z"/><path opacity="0.1" d="M76.37915,452.80151c1.3958,15.80087,18.56841,43.43518,27.6506,52.5101&#10;&#9;&#9;&#9;&#9;&#9;&#9;&#9;c0.2002-2.65671,0.4102-5.63742-0.0922-8.99899c-4.057-27.168-5.2103-31.02982,4.92369-57.789&#10;&#9;&#9;&#9;&#9;&#9;&#9;&#9;c0.3152-0.83209,0.603-1.68759,0.8856-2.5452C96.75544,432.55893,74.24454,428.63724,76.37915,452.80151z" enable-background="new"/></g><path fill="#3C4358" d="M16.08616,590.41278c0,0-11.7743-40.80383,1.3035-80.66031&#10;&#9;&#9;&#9;&#9;&#9;&#9;c1.3241-4.03528,0.4362-16.27838,2.8453-16.2738c1.2683,0.00241,23.1493,21.82895,53.0129,21.19083&#10;&#9;&#9;&#9;&#9;&#9;&#9;c17.01779-0.36365,30.13059-8.74152,30.7785-8.09363c0.6479,0.64789,1.5822,15.18372,1.5822,15.18372&#10;&#9;&#9;&#9;&#9;&#9;&#9;c5.6292,1.5011,5.54671,71.02258,5.54671,71.02258l-95.06899-2.36938H16.08616z"/><g><path fill="#FFC9CA" d="M45.07235,361.84879c-1.4199,6.46463-5.079,13.4082-0.1185,15.66299&#10;&#9;&#9;&#9;&#9;&#9;&#9;&#9;s19.96519,3.70239,20.30299-0.57468c0.2651-3.35641,1.4684-17.11761-0.0007-18.47049&#10;&#9;&#9;&#9;&#9;&#9;&#9;&#9;c-1.4691-1.35291-20.1837,3.38217-20.1837,3.38217H45.07235z"/><path fill="#3C4358" d="M92.93916,356.56149c-0.2747,1.86218-2.7689,2.41409-8.2484,1.51169&#10;&#9;&#9;&#9;&#9;&#9;&#9;&#9;c0,0,11.1197,6.50793,10.6468-1.1058C95.33755,356.96738,92.93916,356.56149,92.93916,356.56149z"/><path fill="#FFD3D4" d="M31.26656,326.59338c-2.2652,13.76782,2.9447,37.11923,16.9107,41.62628&#10;&#9;&#9;&#9;&#9;&#9;&#9;&#9;c17.51329,5.65192,39.7406-1.11017,43.21479-19.18188c6.93-36.0477-5.03199-42.84711-22.935-47.10608&#10;&#9;&#9;&#9;&#9;&#9;&#9;&#9;C50.55405,297.6727,34.25416,308.43488,31.26656,326.59338z"/><path fill="#3C4358" d="M80.61555,333.18869c0.9776-2.18948,10.0139-3.2225,13.4585-8.68048s-3.1624-27.15759-19.8425-31.9726&#10;&#9;&#9;&#9;&#9;&#9;&#9;&#9;c-31.79449-9.17789-46.72919,9.40219-51.00019,21.0007c-4.271,11.59848-4.3304,24.27039,7.5248,37.39438&#10;&#9;&#9;&#9;&#9;&#9;&#9;&#9;c10.2795,11.3797,16.8261,15.15283,28.6364,13.5423c7.002-0.9549,16.3072-13.84732,14.3369-12.8613&#10;&#9;&#9;&#9;&#9;&#9;&#9;&#9;c-6.6586,3.33231-8.2207-13.9859-5.3834-17.96609c1.7169-2.40851,9.71429,3.09738,9.71429,3.09738&#10;&#9;&#9;&#9;&#9;&#9;&#9;&#9;s1.55601-1.31644,2.55521-3.55432V333.18869z"/><path fill="#3C4358" d="M19.80996,361.27979c-6.1209-23.27679,12.3001-33.5947,23.6276-28.3476&#10;&#9;&#9;&#9;&#9;&#9;&#9;&#9;c11.3275,5.24713-0.0435,31.91132-7.2702,34.47128s-14.6028,0.54901-16.3574-6.12381V361.27979z"/><path fill="#3C4358" d="M92.08376,347.5228c-10.443-21.0004,2.8056-26.2688-1.8834-24.46558&#10;&#9;&#9;&#9;&#9;&#9;&#9;&#9;c-4.689,1.80301-12.0197,7.03812-12.0197,7.03812c-0.228,4.91119,7.70899,14.57697,9.8558,17.323&#10;&#9;&#9;&#9;&#9;&#9;&#9;&#9;c3.3063,4.229,5.1721,7.31638,4.9026,9.14316l2.3984,0.40588c-0.12571-2.02417-1.0605-5.03397-3.25381-9.44461&#10;&#9;&#9;&#9;&#9;&#9;&#9;&#9;L92.08376,347.5228z"/></g><path fill="#EDE6EB" d="M22.18866,478.01859c0.0437,1.54364-2.5512,7.70648-2.5899,9.56003&#10;&#9;&#9;&#9;&#9;&#9;&#9;c-0.0387,1.85352-0.5035,6.35208,1.1031,8.18289c0.3407,0.38818,13.8528,12.1344,18.0197,12.05103&#10;&#9;&#9;&#9;&#9;&#9;&#9;c1.9112-0.03821,40.24599,13.51163,42.4374,5.24667c1.0163-3.83301-57.7957-32.85318-57.99439-33.82178&#10;&#9;&#9;&#9;&#9;&#9;&#9;c-0.2989-1.45721-0.9759-1.21878-0.9759-1.21878L22.18866,478.01859z"/><g><g><path fill="#3C4358" d="M30.89246,915.54163c0.3172,2.49481,3.6279,6.59821,3.6279,9.8299s-1.0018,8.13342,0.1433,8.60352&#10;&#9;&#9;&#9;&#9;&#9;&#9;&#9;&#9;c0.6482,0.26599,2.421-0.07782,3.0942-1.02045c0.6732-0.94263-1.7638-10.13025,2.2085-13.4292s-9.074-3.9837-9.074-3.9837&#10;&#9;&#9;&#9;&#9;&#9;&#9;&#9;&#9;L30.89246,915.54163z"/><path fill="#3C4358" d="M32.85406,895.93958c0,0-6.7573,10.34973-3.7279,18.4281&#10;&#9;&#9;&#9;&#9;&#9;&#9;&#9;&#9;c3.0294,8.07843,10.3109,9.14459,14.3844,6.93994s14.7823,4.15033,26.8635,0.50409&#10;&#9;&#9;&#9;&#9;&#9;&#9;&#9;&#9;c6.68221-2.01666,20.44289-12.07336,15.2665-16.8869c-1.9427-1.80652-15.2224-0.60065-24.4081,3.5871&#10;&#9;&#9;&#9;&#9;&#9;&#9;&#9;&#9;c-4.9503,2.25696-11.7254-3.55463-17.5824-7.2619s-10.796-5.31036-10.796-5.31036L32.85406,895.93958z"/><path fill="#FFD6D6" d="M29.83646,852.84631c0,0,7.489,30.9975,1.2763,46.28741&#10;&#9;&#9;&#9;&#9;&#9;&#9;&#9;&#9;c-0.8939,2.20001,4.7144,0.16571,12.4971,5.04193c2.2632,1.41803,4.3552,7.0675,11.1875,7.34241&#10;&#9;&#9;&#9;&#9;&#9;&#9;&#9;&#9;c10.3562,0.41656,18.689,0.83716,12.8757-2.29425c-1.608-0.86615-17.5987-5.36902-19.5848-10.40851&#10;&#9;&#9;&#9;&#9;&#9;&#9;&#9;&#9;c-4.1207-10.45605,8.9437-47.0752,8.9437-47.0752l-27.1955,1.10614L29.83646,852.84631z"/></g><path fill="#3C4358" d="M68.00616,708.2597c0,0-4.66,80.72028-4.0217,156.88916&#10;&#9;&#9;&#9;&#9;&#9;&#9;&#9;c0.0362,4.31873-16.4249,9.29529-21.0701,9.50531c-5.6802,0.25684-20.6945-4.89563-20.2519-12.91394&#10;&#9;&#9;&#9;&#9;&#9;&#9;&#9;c2.5387-45.99567-3.5958-96.65369-4.6268-160.05115c-0.5046-31.02966,49.97039,6.57068,49.97039,6.57068L68.00616,708.2597z"/><path fill="#3C4358" d="M15.92146,554.25476c0.0309,131.04504,2.8919,157.84979,3.8907,190.26105&#10;&#9;&#9;&#9;&#9;&#9;&#9;&#9;c0.2076,6.73596,19.2396,15.43939,24.9472,13.43823c35.4963-12.44495,24.8414-128.17419,30.3327-174.69556&#10;&#9;&#9;&#9;&#9;&#9;&#9;&#9;C80.49836,537.45679,15.91466,525.47821,15.92146,554.25476z"/></g><path opacity="0.1" fill="#1A1A1A" d="M57.56236,811.62927l0.9669-236.37378&#10;&#9;&#9;&#9;&#9;&#9;&#9;c-2.912-0.00275-5.3353,7.44611-6.9946,12.99139c-5.2566-4.27588-13.0466-30.4856-13.0466-30.4856&#10;&#9;&#9;&#9;&#9;&#9;&#9;c-0.3424,9.59119,5.3341,31.15167,8.0367,34.94641c-7.1185,42.7373-0.9925,166.92908,11.0375,218.92157H57.56236z" enable-background="new"/><g><g><path fill="#3C4358" d="M67.28575,937.77069c0.31721,2.49481,3.62791,6.59821,3.62791,9.8299&#10;&#9;&#9;&#9;&#9;&#9;&#9;&#9;&#9;c0,3.23175-1.0018,8.13348,0.1433,8.60352c0.6482,0.26605,2.421-0.07782,3.0942-1.02045s-1.7638-10.13025,2.2085-13.4292&#10;&#9;&#9;&#9;&#9;&#9;&#9;&#9;&#9;c3.97229-3.29895-9.07401-3.98364-9.07401-3.98364L67.28575,937.77069z"/><path fill="#3C4358" d="M69.24745,918.16852c0,0-6.7573,10.34973-3.7279,18.4281&#10;&#9;&#9;&#9;&#9;&#9;&#9;&#9;&#9;c3.0294,8.07837,10.31091,9.14459,14.3844,6.93994s14.7823,4.15033,26.86349,0.50409&#10;&#9;&#9;&#9;&#9;&#9;&#9;&#9;&#9;c6.6822-2.01672,20.44289-12.07336,15.2665-16.8869c-1.9427-1.80652-15.2224-0.60071-24.4081,3.5871&#10;&#9;&#9;&#9;&#9;&#9;&#9;&#9;&#9;c-4.95031,2.2569-11.7254-3.55463-17.5824-7.2619c-5.857-3.70728-10.796-5.31036-10.796-5.31036L69.24745,918.16852z"/><path fill="#FFD6D6" d="M66.22986,875.07532c0,0,7.489,30.9975,1.2763,46.28741&#10;&#9;&#9;&#9;&#9;&#9;&#9;&#9;&#9;c-0.8939,2.20001,4.7144,0.16571,12.4971,5.04193c2.2632,1.41803,4.3552,7.0675,11.18749,7.34241&#10;&#9;&#9;&#9;&#9;&#9;&#9;&#9;&#9;c10.3562,0.41656,18.689,0.83716,12.8757-2.29425c-1.608-0.86615-17.59869-5.36902-19.5848-10.40851&#10;&#9;&#9;&#9;&#9;&#9;&#9;&#9;&#9;c-4.1207-10.45605,8.9437-47.0752,8.9437-47.0752l-27.1955,1.10614V875.07532z"/></g><g><path fill="#3C4358" d="M107.38765,733.75439c0,0-4.2735,80.67273-3.63519,156.84174&#10;&#9;&#9;&#9;&#9;&#9;&#9;&#9;&#9;c0.0362,4.31866-16.4249,9.29523-21.0701,9.50531c-5.6802,0.25677-20.6945-4.89563-20.2519-12.914&#10;&#9;&#9;&#9;&#9;&#9;&#9;&#9;&#9;c2.5387-45.99561-17.1935-131.33136,1.4463-148.6842c22.7144-21.146,43.5108-4.74878,43.5108-4.74878L107.38765,733.75439z"/><path fill="#3C4358" d="M51.17686,564.01868c1.3362,89.25,2.1885,165.0058,5.0447,197.60596&#10;&#9;&#9;&#9;&#9;&#9;&#9;&#9;&#9;c0.6813,7.77618,50.82609-20.89764,51.16619-27.87042c1.4346-29.41321,3.7555-87.1582,3.7555-134.53137&#10;&#9;&#9;&#9;&#9;&#9;&#9;&#9;&#9;c0-76.03699-60.3972-63.9776-59.9664-35.20422L51.17686,564.01868z"/></g></g><g><g><path fill="#FFD3D4" d="M104.21474,422.8392c11.3143,7.1315,48.8119,85.96597,38.97939,91.75961&#10;&#9;&#9;&#9;&#9;&#9;&#9;&#9;&#9;c-9.8325,5.79358-30.4014-32.31772-51.88519-62.0318c-22.0333-30.47409,1.5915-36.85941,12.90579-29.72791V422.8392z"/><path fill="#FFD3D4" d="M139.54414,514.74298c9.1528,6.71149,35.7088-39.88577,35.96249-64.35858&#10;&#9;&#9;&#9;&#9;&#9;&#9;&#9;&#9;c0.0143-1.38181-3.04211-2.53159-3.3658-3.78619c-1.48761-5.76501-25.3101,35.97308-34.4391,52.16916&#10;&#9;&#9;&#9;&#9;&#9;&#9;&#9;&#9;c-8.07109,14.31912,1.84241,15.97549,1.84241,15.97549V514.74298z"/></g><path fill="#EDE6EB" d="M74.47005,444.67996c0.7935,5.16302,12.08469,12.97852,19.9177,19.40604&#10;&#9;&#9;&#9;&#9;&#9;&#9;&#9;c10.1834,8.3562,31.82559-11.95871,31.82559-11.95871s-8.1846-13.33679-8.82439-22.01962&#10;&#9;&#9;&#9;&#9;&#9;&#9;&#9;c-0.5797-7.86707-14.7883-26.0022-17.91409-29.10251c-3.12579-3.10031-27.42509,27.9274-25.0049,43.6748H74.47005z"/></g><path fill="#FFCCCC" d="M40.47486,373.49219c-0.7007,0.17041-1.8967,0.82779-1.6052,1.8493&#10;&#9;&#9;&#9;&#9;&#9;&#9;c0.2915,1.02148,5.6637,6.13141,12.6386,6.67868c4.8964,0.38431,19.56879,3.1474,20.5927-1.26529&#10;&#9;&#9;&#9;&#9;&#9;&#9;c0.6708-2.89069-27.1237-8.35751-31.6261-7.26279L40.47486,373.49219z"/></g></g><path fill="#FFD3D4" d="M175.04475,433.17169c-3.55591,1.7543-8.1752,6.61887-6.7524,12.83908&#10;&#9;&#9;&#9;&#9;c1.47739,6.45901,9.29939,8.96381,16.226,6.71509c8.2366-2.6741,4.76721-9.66769,2.59891-8.16232&#10;&#9;&#9;&#9;&#9;c-2.66479,1.8501-6.65111-2.15659-7.6622-4.2496c-3.47011-7.18359,2.99069-10.79349-4.4104-7.14218L175.04475,433.17169z"/><path fill="#FFD3D4" d="M172.14095,436.91458c0.3405-5.638,4.8548-11.81967,7.6626-10.22629&#10;&#9;&#9;&#9;&#9;c2.80782,1.59341-1.88409,9.26941-2.03648,11.17538C177.61465,439.76965,172.14095,436.91458,172.14095,436.91458z"/><path fill="#FFD3D4" d="M142.64325,422.73547c5.4803-1.36719,13.87961,0.24921,13.2023,3.40579&#10;&#9;&#9;&#9;&#9;c-0.67729,3.15659-15.1797,1.55658-17.04359,1.98318S142.64325,422.73547,142.64325,422.73547z"/></g><g><polygon fill="#c2c2c2" points="342.11792,344.8587 318.13962,331.01477 318.13962,288.0589 342.11792,301.9028"/><polygon fill="#c2c2c2" points="383.91953,368.9928 359.94125,355.14899 359.94125,247.03751 383.91953,260.88141"/><polygon fill="#c2c2c2" points="425.72104,393.12689 401.74274,379.28311 401.74274,306.25641 425.72104,320.10028"/><path fill="#DFDFDF" d="M338.82965,360.79318l-17.40509-10.0488c-1.19254-0.68851-2.1651-2.37299-2.1651-3.74988&#10;&#9;&#9;&#9;&#9;c0-1.37686,0.97256-1.93839,2.1651-1.24988l17.40509,10.0488c1.1925,0.68851,2.1651,2.37299,2.1651,3.74988&#10;&#9;&#9;&#9;&#9;C340.99475,360.92017,340.02216,361.48169,338.82965,360.79318z"/><path fill="#DFDFDF" d="M380.63391,384.92902l-17.40509-10.0488c-1.1925-0.68851-2.1651-2.37302-2.1651-3.74988&#10;&#9;&#9;&#9;&#9;c0-1.37689,0.9726-1.93842,2.1651-1.24991l17.40509,10.0488c1.1925,0.68851,2.1651,2.37302,2.1651,3.74988&#10;&#9;&#9;&#9;&#9;C382.79901,385.056,381.82642,385.61752,380.63391,384.92902z"/><path fill="#DFDFDF" d="M422.43823,409.0647l-17.41348-10.05371c-1.19254-0.68851-2.16513-2.37299-2.16513-3.74988&#10;&#9;&#9;&#9;&#9;c0-1.37692,0.9726-1.93839,2.16513-1.24988l17.41348,10.05371c1.1925,0.68851,2.1651,2.37299,2.1651,3.74988&#10;&#9;&#9;&#9;&#9;C424.60333,409.19174,423.63074,409.7532,422.43823,409.0647z"/></g></g></g></svg>